<?xml version="1.0" standalone="no"?>
<!DOCTYPE svg PUBLIC "-//W3C//DTD SVG 20010904//EN"
 "http://www.w3.org/TR/2001/REC-SVG-20010904/DTD/svg10.dtd">
<svg version="1.0" xmlns="http://www.w3.org/2000/svg"
 width="241.000000pt" height="197.000000pt" viewBox="0 0 241.000000 197.000000"
 preserveAspectRatio="xMidYMid meet">

<g transform="translate(0.000000,197.000000) scale(0.100000,-0.100000)"
fill="#000000" stroke="none">
<path d="M0 1875 l0 -65 83 0 c96 0 125 -12 149 -60 17 -32 18 -90 18 -765 0
-675 -1 -733 -18 -765 -21 -44 -62 -59 -160 -59 l-73 -1 3 -62 3 -63 325 0
325 0 3 61 3 61 -62 7 c-76 7 -118 31 -141 76 -17 32 -18 88 -18 723 0 571 2
687 14 687 8 0 107 -273 291 -810 l278 -810 82 0 83 0 137 417 c75 230 195
597 267 816 91 276 135 397 145 397 22 0 15 -1391 -7 -1435 -19 -37 -55 -55
-125 -62 l-55 -6 0 -64 0 -63 423 2 422 3 3 63 3 62 -76 0 c-95 0 -136 16
-158 63 -15 32 -17 103 -17 761 0 783 0 778 52 808 12 7 61 15 108 18 l85 5 0
60 0 60 -372 3 -372 2 -212 -645 c-117 -355 -218 -645 -224 -645 -6 0 -110
289 -232 643 l-220 642 -382 3 -381 2 0 -65z"/>
</g>
</svg>
